<?xml version="1.0" encoding="UTF-8" standalone="no"?>
<!-- Created with Inkscape (http://www.inkscape.org/) -->

<svg
   width="256"
   height="256"
   viewBox="0 0 67.733332 67.733336"
   version="1.1"
   id="svg5"
   inkscape:version="1.2.2 (1:1.2.2+202212051552+b0a8486541)"
   sodipodi:docname="logo.svg"
   xmlns:inkscape="http://www.inkscape.org/namespaces/inkscape"
   xmlns:sodipodi="http://sodipodi.sourceforge.net/DTD/sodipodi-0.dtd"
   xmlns="http://www.w3.org/2000/svg"
   xmlns:svg="http://www.w3.org/2000/svg">
  <sodipodi:namedview
     id="namedview7"
     pagecolor="#ffffff"
     bordercolor="#666666"
     borderopacity="1.0"
     inkscape:pageshadow="2"
     inkscape:pageopacity="0.0"
     inkscape:pagecheckerboard="0"
     inkscape:document-units="mm"
     showgrid="true"
     units="px"
     inkscape:zoom="1.4485269"
     inkscape:cx="69.035653"
     inkscape:cy="164.65003"
     inkscape:window-width="1920"
     inkscape:window-height="1025"
     inkscape:window-x="0"
     inkscape:window-y="0"
     inkscape:window-maximized="1"
     inkscape:current-layer="layer1"
     inkscape:showpageshadow="2"
     inkscape:deskcolor="#d1d1d1">
    <inkscape:grid
       type="xygrid"
       id="grid846"
       empspacing="4" />
  </sodipodi:namedview>
  <defs
     id="defs2" />
  <g
     inkscape:label="Ebene 1"
     inkscape:groupmode="layer"
     id="layer1">
    <g
       id="g38454"
       transform="matrix(1.5000001,0,0,1.5000001,8.4666663,0.52916667)">
      <rect
         style="fill:#f0db4f;fill-opacity:1;stroke-width:1;stroke-linecap:round;stroke-linejoin:round"
         id="rect1054"
         width="33.866665"
         height="33.866665"
         x="0"
         y="0" />
      <g
         aria-label="Sc"
         id="text10080"
         style="font-size:22.5778px;line-height:1.25;letter-spacing:0px;word-spacing:0px;fill:#323330;stroke-width:0.264583">
        <path
           d="m 13.617463,28.187561 q 0.745068,0 1.219202,-0.112889 0.496711,-0.135467 0.790223,-0.338667 0.293511,-0.225778 0.4064,-0.51929 0.112889,-0.293511 0.112889,-0.654756 0,-0.767645 -0.72249,-1.264357 -0.722489,-0.519289 -2.483558,-1.106312 -0.767645,-0.270934 -1.53529,-0.609601 -0.767645,-0.361244 -1.377246,-0.880534 -0.6096006,-0.541867 -0.9934232,-1.286934 -0.3838226,-0.767646 -0.3838226,-1.85138 0,-1.083735 0.4064004,-1.941691 0.4064004,-0.880534 1.1514674,-1.490135 0.745068,-0.6096 1.806225,-0.92569 1.061156,-0.338667 2.393246,-0.338667 1.580446,0 2.731914,0.338667 1.151468,0.338667 1.896536,0.745068 l -1.016001,2.777069 q -0.654757,-0.338667 -1.467558,-0.587023 -0.790223,-0.270933 -1.919113,-0.270933 -1.264356,0 -1.828801,0.361245 -0.541868,0.338667 -0.541868,1.061156 0,0.428979 0.203201,0.72249 0.2032,0.293511 0.564445,0.541867 0.383822,0.225778 0.857956,0.428978 0.496712,0.180623 1.083734,0.383823 1.219202,0.451556 2.122314,0.903112 0.903112,0.428978 1.490135,1.016001 0.6096,0.587023 0.903112,1.377246 0.293511,0.790223 0.293511,1.919113 0,2.190047 -1.53529,3.409248 -1.535291,1.196623 -4.62845,1.196623 -1.038578,0 -1.873957,-0.135467 -0.835379,-0.112889 -1.490135,-0.293511 -0.6321784,-0.180622 -1.1063122,-0.383823 -0.451556,-0.2032 -0.7676452,-0.383822 l 0.9934232,-2.799647 q 0.6999122,0.383822 1.7159132,0.699911 1.038579,0.293512 2.528713,0.293512 z"
           style="font-weight:bold;font-family:Ubuntu;-inkscape-font-specification:'Ubuntu Bold'"
           id="path950" />
        <path
           d="m 21.700289,24.936357 q 0,-1.286934 0.4064,-2.415824 0.428979,-1.151468 1.219202,-1.986847 0.790223,-0.857956 1.919113,-1.354668 1.12889,-0.496711 2.573869,-0.496711 0.948268,0 1.738491,0.180622 0.790223,0.158045 1.53529,0.474134 l -0.699912,2.686758 q -0.474133,-0.180622 -1.038578,-0.316089 -0.564446,-0.135467 -1.264357,-0.135467 -1.490135,0 -2.235203,0.92569 -0.722489,0.92569 -0.722489,2.438402 0,1.603024 0.677334,2.483559 0.699912,0.880534 2.415824,0.880534 0.609601,0 1.309513,-0.112889 0.699912,-0.112889 1.286935,-0.361245 l 0.474133,2.754492 q -0.587022,0.248355 -1.467557,0.428978 -0.880534,0.180622 -1.941691,0.180622 -1.625601,0 -2.799647,-0.474134 -1.174045,-0.496711 -1.941691,-1.33209 -0.745067,-0.835378 -1.106312,-1.964268 -0.338667,-1.151468 -0.338667,-2.483559 z"
           style="font-weight:bold;font-family:Ubuntu;-inkscape-font-specification:'Ubuntu Bold'"
           id="path952" />
      </g>
    </g>
    <g
       aria-label="riptOffice"
       id="text10080-3"
       style="font-size:14.1111px;line-height:1.25;letter-spacing:0px;word-spacing:0px;fill:#323330;stroke:#ffffff;stroke-width:0.2">
      <path
         d="m 5.7433187,59.033839 q -0.282222,-0.07055 -0.6632217,-0.141111 -0.3809997,-0.08467 -0.8184438,-0.08467 -0.1975554,0 -0.4797774,0.04233 -0.2681109,0.02822 -0.4092219,0.07055 v 5.672663 h -2.102554 v -7.027328 q 0.564444,-0.197556 1.3264434,-0.366889 0.7761106,-0.183444 1.7215543,-0.183444 0.1693332,0 0.4092219,0.02822 0.2398887,0.01411 0.4797774,0.05644 0.2398887,0.02822 0.4797774,0.08467 0.2398887,0.04233 0.4092219,0.112889 z"
         style="font-weight:bold;font-family:Ubuntu;-inkscape-font-specification:'Ubuntu Bold'"
         id="path955" />
      <path
         d="M 9.3275236,64.593613 H 7.2249697 V 57.171174 H 9.3275236 Z M 9.525079,55.026287 q 0,0.578555 -0.3809997,0.917221 -0.3668886,0.324556 -0.8748882,0.324556 -0.5079996,0 -0.8889993,-0.324556 -0.3668886,-0.338666 -0.3668886,-0.917221 0,-0.578555 0.3668886,-0.903111 0.3809997,-0.338666 0.8889993,-0.338666 0.5079996,0 0.8748882,0.338666 0.3809997,0.324556 0.3809997,0.903111 z"
         style="font-weight:bold;font-family:Ubuntu;-inkscape-font-specification:'Ubuntu Bold'"
         id="path957" />
      <path
         d="m 16.058512,60.938838 q 0,-0.973666 -0.437444,-1.552221 -0.437444,-0.592667 -1.298221,-0.592667 -0.282222,0 -0.522111,0.02822 -0.239889,0.01411 -0.395111,0.04233 v 3.795886 q 0.197556,0.127 0.508,0.211666 0.324555,0.08467 0.64911,0.08467 1.495777,0 1.495777,-2.017887 z m 2.144887,-0.05644 q 0,0.860777 -0.211666,1.566332 -0.211667,0.705555 -0.620889,1.213555 -0.409222,0.508 -1.015999,0.790222 -0.606777,0.282222 -1.396999,0.282222 -0.437444,0 -0.818444,-0.08467 -0.380999,-0.08467 -0.733777,-0.239889 v 2.793998 h -2.102554 v -9.778992 q 0.282222,-0.08467 0.649111,-0.155222 0.366889,-0.08467 0.761999,-0.141111 0.409222,-0.05645 0.818444,-0.08467 0.423333,-0.04233 0.804333,-0.04233 0.917221,0 1.636887,0.282222 0.719667,0.268111 1.213555,0.77611 0.493889,0.493889 0.747888,1.213555 0.268111,0.719666 0.268111,1.608665 z"
         style="font-weight:bold;font-family:Ubuntu;-inkscape-font-specification:'Ubuntu Bold'"
         id="path959" />
      <path
         d="m 19.755594,55.32262 2.102554,-0.338667 v 2.187221 h 2.525887 v 1.749776 h -2.525887 v 2.610554 q 0,0.663222 0.225777,1.058332 0.239889,0.395111 0.945444,0.395111 0.338666,0 0.691444,-0.05644 0.366889,-0.07056 0.663222,-0.183444 l 0.296333,1.636887 q -0.381,0.155222 -0.846666,0.268111 -0.465667,0.112889 -1.142999,0.112889 -0.860777,0 -1.425222,-0.225778 -0.564444,-0.239888 -0.90311,-0.64911 -0.338666,-0.423333 -0.479777,-1.016 -0.127,-0.592666 -0.127,-1.312332 z"
         style="font-weight:bold;font-family:Ubuntu;-inkscape-font-specification:'Ubuntu Bold'"
         id="path961" />
      <path
         d="m 28.081121,59.697061 q 0,0.719666 0.169333,1.298221 0.183444,0.578555 0.508,1.001888 0.338666,0.409222 0.818443,0.635 0.479778,0.225777 1.100666,0.225777 0.606778,0 1.086555,-0.225777 0.493889,-0.225778 0.818444,-0.635 0.338666,-0.423333 0.507999,-1.001888 0.183445,-0.578555 0.183445,-1.298221 0,-0.719666 -0.183445,-1.298221 -0.169333,-0.592667 -0.507999,-1.001888 -0.324555,-0.423333 -0.818444,-0.649111 -0.479777,-0.225778 -1.086555,-0.225778 -0.620888,0 -1.100666,0.239889 -0.479777,0.225778 -0.818443,0.649111 -0.324556,0.409222 -0.508,1.001888 -0.169333,0.578555 -0.169333,1.28411 z m 7.464772,0 q 0,1.255888 -0.381,2.215443 -0.366888,0.945443 -1.015999,1.594554 -0.649111,0.634999 -1.552221,0.959555 -0.888999,0.324555 -1.91911,0.324555 -1.001888,0 -1.890887,-0.324555 -0.888999,-0.324556 -1.552221,-0.959555 -0.663222,-0.649111 -1.044222,-1.594554 -0.380999,-0.959555 -0.380999,-2.215443 0,-1.255888 0.395111,-2.201332 0.39511,-0.959555 1.058332,-1.608665 0.677333,-0.649111 1.552221,-0.973666 0.888999,-0.324555 1.862665,-0.324555 1.001888,0 1.890888,0.324555 0.888999,0.324555 1.552221,0.973666 0.663221,0.64911 1.044221,1.608665 0.381,0.945444 0.381,2.201332 z"
         style="font-weight:bold;font-family:Ubuntu;-inkscape-font-specification:'Ubuntu Bold'"
         id="path963" />
      <path
         d="m 40.456543,53.643399 q 0.592666,0 1.086555,0.127 0.493888,0.112889 0.761999,0.225777 l -0.409222,1.679221 q -0.282222,-0.127 -0.620888,-0.183444 -0.324555,-0.07055 -0.606777,-0.07055 -0.381,0 -0.649111,0.112888 -0.254,0.09878 -0.409222,0.282222 -0.141111,0.183445 -0.211666,0.437444 -0.05645,0.254 -0.05645,0.550333 v 0.366889 h 2.596443 v 1.749776 h -2.596443 v 5.672663 h -2.102554 v -7.81755 q 0,-1.439332 0.804333,-2.285998 0.818444,-0.846666 2.412998,-0.846666 z m 5.912551,0 q 0.592666,0 0.973666,0.09878 0.395111,0.09878 0.663222,0.211666 l -0.366889,1.650999 q -0.225777,-0.09878 -0.507999,-0.141111 -0.268111,-0.04233 -0.550333,-0.04233 -0.381,0 -0.649111,0.112888 -0.254,0.09878 -0.409222,0.282222 -0.141111,0.183445 -0.211666,0.437444 -0.05644,0.254 -0.05644,0.550333 v 0.366889 h 2.596443 v 1.749776 h -2.596443 v 5.672663 h -2.102554 v -7.81755 q 0,-1.439332 0.804333,-2.285998 0.818444,-0.846666 2.412998,-0.846666 z m 4.797774,10.950214 h -2.102554 v -7.422439 h 2.102554 z m 0.197556,-9.567326 q 0,0.578555 -0.381,0.917221 -0.366889,0.324556 -0.874888,0.324556 -0.508,0 -0.889,-0.324556 -0.366888,-0.338666 -0.366888,-0.917221 0,-0.578555 0.366888,-0.903111 0.381,-0.338666 0.889,-0.338666 0.507999,0 0.874888,0.338666 0.381,0.324556 0.381,0.903111 z"
         style="font-weight:bold;font-family:Ubuntu;-inkscape-font-specification:'Ubuntu Bold'"
         id="path965" />
      <path
         d="m 52.789629,60.882393 q 0,-0.804332 0.254,-1.509887 0.268111,-0.719667 0.761999,-1.241777 0.493889,-0.536222 1.199444,-0.846666 0.705555,-0.310444 1.608665,-0.310444 0.592667,0 1.086555,0.112888 0.493889,0.09878 0.959555,0.296333 l -0.437444,1.679221 q -0.296333,-0.112888 -0.649111,-0.197555 -0.352777,-0.08467 -0.790221,-0.08467 -0.931333,0 -1.396999,0.578555 -0.451556,0.578556 -0.451556,1.523999 0,1.001888 0.423333,1.552221 0.437445,0.550333 1.509888,0.550333 0.381,0 0.818444,-0.07055 0.437444,-0.07056 0.804333,-0.225778 l 0.296333,1.721554 q -0.366889,0.155222 -0.917222,0.268111 -0.550333,0.112889 -1.213554,0.112889 -1.016,0 -1.749777,-0.296333 -0.733777,-0.310444 -1.213554,-0.832555 -0.465667,-0.522111 -0.691444,-1.227666 -0.211667,-0.719666 -0.211667,-1.552221 z"
         style="font-weight:bold;font-family:Ubuntu;-inkscape-font-specification:'Ubuntu Bold'"
         id="path967" />
      <path
         d="m 59.49235,60.938838 q 0,-0.987777 0.296333,-1.721555 0.310444,-0.747888 0.804333,-1.241776 0.493888,-0.493889 1.128888,-0.747889 0.64911,-0.253999 1.326443,-0.253999 1.580443,0 2.497665,0.973665 0.917221,0.959555 0.917221,2.836332 0,0.183444 -0.01411,0.409222 -0.01411,0.211666 -0.02822,0.380999 h -4.769552 q 0.07056,0.649111 0.606778,1.030111 0.536221,0.380999 1.439332,0.380999 0.578555,0 1.128888,-0.09878 0.564444,-0.112889 0.917221,-0.268111 l 0.282222,1.707443 q -0.169333,0.08467 -0.451555,0.169333 -0.282222,0.08467 -0.634999,0.141111 -0.338667,0.07055 -0.733778,0.112889 -0.39511,0.04233 -0.790221,0.04233 -1.001888,0 -1.749777,-0.296333 -0.733777,-0.296333 -1.227665,-0.804333 -0.479778,-0.52211 -0.719667,-1.227665 -0.225777,-0.705555 -0.225777,-1.523999 z m 4.938885,-0.804333 q -0.01411,-0.268111 -0.09878,-0.522111 -0.07055,-0.254 -0.239888,-0.451555 -0.155223,-0.197555 -0.409222,-0.324555 -0.239889,-0.127 -0.606778,-0.127 -0.352777,0 -0.606777,0.127 -0.254,0.112889 -0.423333,0.310444 -0.169333,0.197555 -0.268111,0.465666 -0.08467,0.254 -0.127,0.522111 z"
         style="font-weight:bold;font-family:Ubuntu;-inkscape-font-specification:'Ubuntu Bold'"
         id="path969" />
    </g>
  </g>
</svg>
